<svg xmlns="http://www.w3.org/2000/svg" version="1.1" xmlns:xlink="http://www.w3.org/1999/xlink" xmlns:svgjs="http://svgjs.dev/svgjs" width="1000" height="623" viewBox="0 0 1000 623"><g transform="matrix(1,0,0,1,-0.6060606060606233,0.2522267206477409)"><svg viewBox="0 0 396 247" data-background-color="#cf5260" preserveAspectRatio="xMidYMid meet" height="623" width="1000" xmlns="http://www.w3.org/2000/svg" xmlns:xlink="http://www.w3.org/1999/xlink"><g id="tight-bounds" transform="matrix(1,0,0,1,0.2400000000000091,-0.09999999999999432)"><svg viewBox="0 0 395.52 247.2" height="247.2" width="395.52"><g><svg></svg></g><g><svg viewBox="0 0 395.52 247.2" height="247.2" width="395.52"><g transform="matrix(1,0,0,1,140.79876342857142,47.215199999999996)"><svg viewBox="0 0 113.92247314285714 152.7696" height="152.7696" width="113.92247314285714"><g><svg viewBox="0 0 113.92247314285714 152.7696" height="152.7696" width="113.92247314285714"><g><svg viewBox="0 0 113.92247314285714 152.7696" height="152.7696" width="113.92247314285714"><g><svg viewBox="0 0 113.92247314285714 152.7696" height="152.7696" width="113.92247314285714"><g id="textblocktransform"><svg viewBox="0 0 113.92247314285714 152.7696" height="152.7696" width="113.92247314285714" id="textblock"><g><svg viewBox="0 0 113.92247314285714 152.7696" height="152.7696" width="113.92247314285714"><g transform="matrix(1,0,0,1,0,0)"><svg width="113.92247314285714" viewBox="3.299999952316284 -35 26.100000381469727 35" height="152.7696" data-palette-color="#f0f0f0"><path d="M3.3 0L3.3-35 14.55-35Q18.85-35 22.23-32.9 25.6-30.8 27.5-26.85 29.4-22.9 29.4-17.5L29.4-17.5Q29.4-12.1 27.5-8.15 25.6-4.2 22.23-2.1 18.85 0 14.55 0L14.55 0 3.3 0ZM8.55-4.8L14.1-4.8Q18.75-4.8 21.18-8.13 23.6-11.45 23.6-17.5L23.6-17.5Q23.6-23.55 21.18-26.88 18.75-30.2 14.1-30.2L14.1-30.2 8.55-30.2 8.55-4.8Z" opacity="1" transform="matrix(1,0,0,1,0,0)" fill="#f0f0f0" class="undefined-text-0" data-fill-palette-color="primary" id="text-0"></path></svg></g></svg></g></svg></g></svg></g></svg></g></svg></g></svg></g><path d="M323.1 41.215L323.1 0 75.9 0 75.9 247.2 323.1 247.2 323.1 205.985 309.323 205.985 309.323 233.423 89.677 233.423 89.677 13.777 309.323 13.777 309.323 41.215Z" fill="#f0f0f0" stroke="transparent" data-fill-palette-color="primary"></path></svg></g><defs></defs></svg><rect width="395.52" height="247.2" fill="none" stroke="none" visibility="hidden"></rect></g></svg></g></svg>